<svg width="362" height="103" viewBox="0 0 362 103" fill="none" xmlns="http://www.w3.org/2000/svg">
<g filter="url(#filter0_d_1_316)">
<path d="M29.2595 78H15.4256L15.5129 67.7882H29.2595C32.6925 67.7882 35.5873 67.0172 37.9439 65.4753C40.3005 63.9042 42.0752 61.6204 43.268 58.6238C44.4899 55.6272 45.1009 52.005 45.1009 47.7574V44.6589C45.1009 41.4005 44.7518 38.5348 44.0535 36.0618C43.3844 33.5889 42.3807 31.5087 41.0424 29.8213C39.7041 28.1339 38.0603 26.8683 36.111 26.0246C34.1618 25.1518 31.9216 24.7154 29.3904 24.7154H15.1638V14.46H29.3904C33.6381 14.46 37.5221 15.1873 41.0424 16.642C44.5918 18.0675 47.6611 20.1186 50.2504 22.7952C52.8397 25.4718 54.8326 28.6721 56.2291 32.3961C57.6547 36.0909 58.3675 40.2076 58.3675 44.7462V47.7574C58.3675 52.2669 57.6547 56.3836 56.2291 60.1075C54.8326 63.8315 52.8397 67.0318 50.2504 69.7084C47.6902 72.3559 44.6208 74.407 41.0424 75.8616C37.493 77.2872 33.5653 78 29.2595 78ZM22.8444 14.46V78H9.75238V14.46H22.8444ZM80.3621 30.7814V78H67.7501V30.7814H80.3621ZM66.9646 18.4749C66.9646 16.642 67.6047 15.1291 68.8848 13.9363C70.1649 12.7434 71.8814 12.147 74.0343 12.147C76.1581 12.147 77.8601 12.7434 79.1402 13.9363C80.4494 15.1291 81.104 16.642 81.104 18.4749C81.104 20.3077 80.4494 21.8206 79.1402 23.0134C77.8601 24.2063 76.1581 24.8027 74.0343 24.8027C71.8814 24.8027 70.1649 24.2063 68.8848 23.0134C67.6047 21.8206 66.9646 20.3077 66.9646 18.4749ZM120.642 30.7814H132.032V76.429C132.032 80.7348 131.072 84.386 129.152 87.3826C127.261 90.4083 124.613 92.6922 121.209 94.2341C117.805 95.8052 113.849 96.5907 109.339 96.5907C107.361 96.5907 105.266 96.3289 103.055 95.8052C100.873 95.2815 98.7783 94.4669 96.7708 93.3613C94.7925 92.2558 93.1341 90.8593 91.7958 89.1719L97.3381 81.7531C98.7928 83.4405 100.48 84.7497 102.4 85.6807C104.321 86.6407 106.444 87.1208 108.772 87.1208C111.041 87.1208 112.961 86.6989 114.532 85.8552C116.103 85.0406 117.311 83.8332 118.154 82.2331C118.998 80.662 119.42 78.7564 119.42 76.5162V41.6914L120.642 30.7814ZM88.8719 54.958V54.0416C88.8719 50.434 89.3083 47.161 90.1812 44.2225C91.083 41.255 92.3486 38.7093 93.9778 36.5855C95.6362 34.4617 97.6436 32.8179 100 31.6542C102.357 30.4904 105.019 29.9086 107.986 29.9086C111.128 29.9086 113.761 30.4904 115.885 31.6542C118.009 32.8179 119.755 34.4762 121.122 36.6292C122.489 38.753 123.551 41.2696 124.308 44.1789C125.093 47.0591 125.704 50.2158 126.141 53.6488V55.6562C125.704 58.9438 125.05 61.9986 124.177 64.8207C123.304 67.6427 122.155 70.1157 120.729 72.2395C119.304 74.3342 117.529 75.9635 115.405 77.1272C113.31 78.2909 110.808 78.8728 107.899 78.8728C104.99 78.8728 102.357 78.2764 100 77.0836C97.6727 75.8907 95.6798 74.2179 94.0215 72.0649C92.3632 69.912 91.083 67.3809 90.1812 64.4716C89.3083 61.5622 88.8719 58.391 88.8719 54.958ZM101.44 54.0416V54.958C101.44 56.9073 101.629 58.7256 102.008 60.413C102.386 62.1004 102.968 63.5988 103.753 64.908C104.568 66.1881 105.572 67.1918 106.764 67.9191C107.986 68.6174 109.426 68.9665 111.085 68.9665C113.383 68.9665 115.26 68.4865 116.714 67.5264C118.169 66.5372 119.26 65.1843 119.987 63.4678C120.715 61.7513 121.137 59.773 121.253 57.5328V51.8159C121.195 49.983 120.947 48.3393 120.511 46.8846C120.075 45.4008 119.464 44.1353 118.678 43.0879C117.893 42.0405 116.874 41.2259 115.623 40.644C114.372 40.0622 112.889 39.7712 111.172 39.7712C109.514 39.7712 108.074 40.1495 106.852 40.9059C105.659 41.6332 104.655 42.6369 103.841 43.9171C103.055 45.1972 102.459 46.71 102.051 48.4556C101.644 50.1721 101.44 52.0341 101.44 54.0416ZM155.074 30.7814V78H142.462V30.7814H155.074ZM141.677 18.4749C141.677 16.642 142.317 15.1291 143.597 13.9363C144.877 12.7434 146.593 12.147 148.746 12.147C150.87 12.147 152.572 12.7434 153.852 13.9363C155.161 15.1291 155.816 16.642 155.816 18.4749C155.816 20.3077 155.161 21.8206 153.852 23.0134C152.572 24.2063 150.87 24.8027 148.746 24.8027C146.593 24.8027 144.877 24.2063 143.597 23.0134C142.317 21.8206 141.677 20.3077 141.677 18.4749ZM179.338 14.46V78H166.246V14.46H179.338ZM204.649 41.6041V51.8159H175.759V41.6041H204.649ZM207.704 14.46V24.7154H175.759V14.46H207.704ZM211.544 54.8707V53.9543C211.544 50.4922 212.039 47.3064 213.028 44.3971C214.017 41.4587 215.457 38.913 217.349 36.7601C219.24 34.6072 221.567 32.9343 224.331 31.7415C227.095 30.5195 230.266 29.9086 233.844 29.9086C237.423 29.9086 240.609 30.5195 243.402 31.7415C246.195 32.9343 248.537 34.6072 250.428 36.7601C252.348 38.913 253.803 41.4587 254.792 44.3971C255.781 47.3064 256.276 50.4922 256.276 53.9543V54.8707C256.276 58.3038 255.781 61.4895 254.792 64.4279C253.803 67.3373 252.348 69.8829 250.428 72.0649C248.537 74.2179 246.209 75.8907 243.445 77.0836C240.681 78.2764 237.51 78.8728 233.932 78.8728C230.353 78.8728 227.168 78.2764 224.375 77.0836C221.611 75.8907 219.269 74.2179 217.349 72.0649C215.457 69.8829 214.017 67.3373 213.028 64.4279C212.039 61.4895 211.544 58.3038 211.544 54.8707ZM224.113 53.9543V54.8707C224.113 56.8491 224.287 58.6965 224.636 60.413C224.986 62.1295 225.538 63.6424 226.295 64.9516C227.08 66.2317 228.099 67.2354 229.35 67.9628C230.601 68.6901 232.128 69.0538 233.932 69.0538C235.677 69.0538 237.176 68.6901 238.427 67.9628C239.678 67.2354 240.681 66.2317 241.438 64.9516C242.194 63.6424 242.747 62.1295 243.096 60.413C243.474 58.6965 243.664 56.8491 243.664 54.8707V53.9543C243.664 52.0341 243.474 50.2303 243.096 48.5429C242.747 46.8264 242.18 45.3135 241.394 44.0043C240.638 42.666 239.634 41.6187 238.383 40.8622C237.132 40.1058 235.619 39.7276 233.844 39.7276C232.07 39.7276 230.557 40.1058 229.306 40.8622C228.084 41.6187 227.08 42.666 226.295 44.0043C225.538 45.3135 224.986 46.8264 224.636 48.5429C224.287 50.2303 224.113 52.0341 224.113 53.9543ZM261.992 54.8707V53.9543C261.992 50.4922 262.487 47.3064 263.476 44.3971C264.465 41.4587 265.905 38.913 267.797 36.7601C269.688 34.6072 272.015 32.9343 274.779 31.7415C277.543 30.5195 280.714 29.9086 284.292 29.9086C287.871 29.9086 291.057 30.5195 293.85 31.7415C296.643 32.9343 298.985 34.6072 300.876 36.7601C302.796 38.913 304.251 41.4587 305.24 44.3971C306.229 47.3064 306.724 50.4922 306.724 53.9543V54.8707C306.724 58.3038 306.229 61.4895 305.24 64.4279C304.251 67.3373 302.796 69.8829 300.876 72.0649C298.985 74.2179 296.657 75.8907 293.893 77.0836C291.129 78.2764 287.958 78.8728 284.38 78.8728C280.801 78.8728 277.616 78.2764 274.823 77.0836C272.059 75.8907 269.717 74.2179 267.797 72.0649C265.905 69.8829 264.465 67.3373 263.476 64.4279C262.487 61.4895 261.992 58.3038 261.992 54.8707ZM274.561 53.9543V54.8707C274.561 56.8491 274.735 58.6965 275.084 60.413C275.434 62.1295 275.986 63.6424 276.743 64.9516C277.528 66.2317 278.547 67.2354 279.798 67.9628C281.049 68.6901 282.576 69.0538 284.38 69.0538C286.125 69.0538 287.624 68.6901 288.875 67.9628C290.126 67.2354 291.129 66.2317 291.886 64.9516C292.642 63.6424 293.195 62.1295 293.544 60.413C293.922 58.6965 294.112 56.8491 294.112 54.8707V53.9543C294.112 52.0341 293.922 50.2303 293.544 48.5429C293.195 46.8264 292.628 45.3135 291.842 44.0043C291.086 42.666 290.082 41.6187 288.831 40.8622C287.58 40.1058 286.067 39.7276 284.292 39.7276C282.518 39.7276 281.005 40.1058 279.754 40.8622C278.532 41.6187 277.528 42.666 276.743 44.0043C275.986 45.3135 275.434 46.8264 275.084 48.5429C274.735 50.2303 274.561 52.0341 274.561 53.9543ZM342.334 67.7009V10.9688H354.99V78H343.599L342.334 67.7009ZM312.484 54.958V54.0416C312.484 50.434 312.891 47.161 313.706 44.2225C314.521 41.255 315.713 38.7093 317.284 36.5855C318.855 34.4617 320.79 32.8179 323.089 31.6542C325.387 30.4904 328.005 29.9086 330.944 29.9086C333.708 29.9086 336.122 30.4904 338.188 31.6542C340.283 32.8179 342.057 34.4762 343.512 36.6292C344.996 38.753 346.189 41.2696 347.091 44.1789C347.993 47.0591 348.647 50.2158 349.054 53.6488V55.6562C348.647 58.9438 347.993 61.9986 347.091 64.8207C346.189 67.6427 344.996 70.1157 343.512 72.2395C342.057 74.3342 340.283 75.9635 338.188 77.1272C336.093 78.2909 333.649 78.8728 330.857 78.8728C327.918 78.8728 325.3 78.2764 323.001 77.0836C320.732 75.8907 318.812 74.2179 317.241 72.0649C315.699 69.912 314.521 67.3809 313.706 64.4716C312.891 61.5622 312.484 58.391 312.484 54.958ZM325.052 54.0416V54.958C325.052 56.9073 325.198 58.7256 325.489 60.413C325.809 62.1004 326.318 63.5988 327.016 64.908C327.744 66.1881 328.674 67.1918 329.809 67.9191C330.973 68.6174 332.384 68.9665 334.042 68.9665C336.195 68.9665 337.97 68.4865 339.366 67.5264C340.763 66.5372 341.825 65.1843 342.552 63.4678C343.308 61.7513 343.745 59.773 343.861 57.5328V51.8159C343.774 49.983 343.512 48.3393 343.076 46.8846C342.668 45.4008 342.057 44.1353 341.243 43.0879C340.457 42.0405 339.468 41.2259 338.275 40.644C337.112 40.0622 335.73 39.7712 334.13 39.7712C332.5 39.7712 331.104 40.1495 329.94 40.9059C328.776 41.6332 327.831 42.6369 327.103 43.9171C326.405 45.1972 325.882 46.71 325.532 48.4556C325.212 50.1721 325.052 52.0341 325.052 54.0416Z" fill="#8D448B"/>
</g>
<defs>
<filter id="filter0_d_1_316" x="0.752441" y="0.96875" width="361.237" height="101.622" filterUnits="userSpaceOnUse" color-interpolation-filters="sRGB">
<feFlood flood-opacity="0" result="BackgroundImageFix"/>
<feColorMatrix in="SourceAlpha" type="matrix" values="0 0 0 0 0 0 0 0 0 0 0 0 0 0 0 0 0 0 127 0" result="hardAlpha"/>
<feOffset dx="-1" dy="-2"/>
<feGaussianBlur stdDeviation="4"/>
<feComposite in2="hardAlpha" operator="out"/>
<feColorMatrix type="matrix" values="0 0 0 0 0 0 0 0 0 0 0 0 0 0 0 0 0 0 0.5 0"/>
<feBlend mode="normal" in2="BackgroundImageFix" result="effect1_dropShadow_1_316"/>
<feBlend mode="normal" in="SourceGraphic" in2="effect1_dropShadow_1_316" result="shape"/>
</filter>
</defs>
</svg>
